<mxfile host="app.diagrams.net" modified="2022-05-13T11:35:11.970Z" agent="5.0 (Windows NT 10.0; Win64; x64) AppleWebKit/537.36 (KHTML, like Gecko) Chrome/101.0.4951.54 Safari/537.36 Edg/101.0.1210.39" etag="ApvzHi1yZZQvGonipErk" version="17.5.1" type="github" pages="2">
  <diagram id="_KlD4hgYSfkL_tTcSZZS" name="ERD">
    <mxGraphModel dx="629" dy="541" grid="1" gridSize="10" guides="1" tooltips="1" connect="1" arrows="1" fold="1" page="1" pageScale="1" pageWidth="1500" pageHeight="1500" math="0" shadow="0">
      <root>
        <mxCell id="0" />
        <mxCell id="1" parent="0" />
        <mxCell id="z6AQ_ZdIFIeg6vGM6wUR-31" value="" style="edgeStyle=none;rounded=0;orthogonalLoop=1;jettySize=auto;html=1;endArrow=none;endFill=0;" parent="1" source="Y6eDKHJyhSqBDE-pWzHO-2" target="Y6eDKHJyhSqBDE-pWzHO-3" edge="1">
          <mxGeometry relative="1" as="geometry" />
        </mxCell>
        <mxCell id="z6AQ_ZdIFIeg6vGM6wUR-34" value="" style="edgeStyle=none;rounded=0;orthogonalLoop=1;jettySize=auto;html=1;endArrow=none;endFill=0;" parent="1" source="Y6eDKHJyhSqBDE-pWzHO-2" target="z6AQ_ZdIFIeg6vGM6wUR-33" edge="1">
          <mxGeometry relative="1" as="geometry" />
        </mxCell>
        <mxCell id="Y6eDKHJyhSqBDE-pWzHO-2" value="kelola" style="shape=rhombus;perimeter=rhombusPerimeter;whiteSpace=wrap;html=1;align=center;rounded=1;strokeColor=default;" parent="1" vertex="1">
          <mxGeometry x="430" y="620" width="120" height="60" as="geometry" />
        </mxCell>
        <mxCell id="Y6eDKHJyhSqBDE-pWzHO-6" value="" style="edgeStyle=none;rounded=0;orthogonalLoop=1;jettySize=auto;html=1;endArrow=none;endFill=0;" parent="1" source="Y6eDKHJyhSqBDE-pWzHO-3" target="Y6eDKHJyhSqBDE-pWzHO-5" edge="1">
          <mxGeometry relative="1" as="geometry" />
        </mxCell>
        <mxCell id="z6AQ_ZdIFIeg6vGM6wUR-2" value="" style="edgeStyle=none;rounded=0;orthogonalLoop=1;jettySize=auto;html=1;endArrow=none;endFill=0;" parent="1" source="Y6eDKHJyhSqBDE-pWzHO-3" target="z6AQ_ZdIFIeg6vGM6wUR-1" edge="1">
          <mxGeometry relative="1" as="geometry" />
        </mxCell>
        <mxCell id="z6AQ_ZdIFIeg6vGM6wUR-4" style="edgeStyle=none;rounded=0;orthogonalLoop=1;jettySize=auto;html=1;exitX=0;exitY=0.25;exitDx=0;exitDy=0;entryX=1;entryY=0.5;entryDx=0;entryDy=0;endArrow=none;endFill=0;" parent="1" source="Y6eDKHJyhSqBDE-pWzHO-3" target="z6AQ_ZdIFIeg6vGM6wUR-3" edge="1">
          <mxGeometry relative="1" as="geometry" />
        </mxCell>
        <mxCell id="Y6eDKHJyhSqBDE-pWzHO-3" value="Admin" style="whiteSpace=wrap;html=1;align=center;rounded=1;strokeColor=default;" parent="1" vertex="1">
          <mxGeometry x="250" y="620" width="120" height="60" as="geometry" />
        </mxCell>
        <mxCell id="Y6eDKHJyhSqBDE-pWzHO-5" value="adm_name" style="ellipse;whiteSpace=wrap;html=1;rounded=1;" parent="1" vertex="1">
          <mxGeometry x="275" y="570" width="70" height="30" as="geometry" />
        </mxCell>
        <mxCell id="z6AQ_ZdIFIeg6vGM6wUR-1" value="adm_id" style="ellipse;whiteSpace=wrap;html=1;rounded=1;fontStyle=4" parent="1" vertex="1">
          <mxGeometry x="195" y="580" width="70" height="30" as="geometry" />
        </mxCell>
        <mxCell id="z6AQ_ZdIFIeg6vGM6wUR-3" value="adm_pass" style="ellipse;whiteSpace=wrap;html=1;rounded=1;" parent="1" vertex="1">
          <mxGeometry x="150" y="620" width="70" height="30" as="geometry" />
        </mxCell>
        <mxCell id="z6AQ_ZdIFIeg6vGM6wUR-5" style="edgeStyle=none;rounded=0;orthogonalLoop=1;jettySize=auto;html=1;exitX=0;exitY=0.5;exitDx=0;exitDy=0;entryX=1;entryY=0.5;entryDx=0;entryDy=0;endArrow=none;endFill=0;" parent="1" source="Y6eDKHJyhSqBDE-pWzHO-3" target="z6AQ_ZdIFIeg6vGM6wUR-6" edge="1">
          <mxGeometry relative="1" as="geometry">
            <mxPoint x="260" y="680" as="sourcePoint" />
          </mxGeometry>
        </mxCell>
        <mxCell id="z6AQ_ZdIFIeg6vGM6wUR-6" value="adm_email" style="ellipse;whiteSpace=wrap;html=1;rounded=1;" parent="1" vertex="1">
          <mxGeometry x="140" y="660" width="70" height="30" as="geometry" />
        </mxCell>
        <mxCell id="z6AQ_ZdIFIeg6vGM6wUR-14" style="edgeStyle=none;rounded=0;orthogonalLoop=1;jettySize=auto;html=1;exitX=1;exitY=0;exitDx=0;exitDy=0;entryX=0.25;entryY=1;entryDx=0;entryDy=0;endArrow=none;endFill=0;" parent="1" source="z6AQ_ZdIFIeg6vGM6wUR-7" target="Y6eDKHJyhSqBDE-pWzHO-3" edge="1">
          <mxGeometry relative="1" as="geometry" />
        </mxCell>
        <mxCell id="z6AQ_ZdIFIeg6vGM6wUR-7" value="adm_address" style="ellipse;whiteSpace=wrap;html=1;rounded=1;" parent="1" vertex="1">
          <mxGeometry x="185" y="690" width="90" height="30" as="geometry" />
        </mxCell>
        <mxCell id="z6AQ_ZdIFIeg6vGM6wUR-13" style="edgeStyle=none;rounded=0;orthogonalLoop=1;jettySize=auto;html=1;exitX=0.5;exitY=0;exitDx=0;exitDy=0;entryX=0.5;entryY=1;entryDx=0;entryDy=0;endArrow=none;endFill=0;" parent="1" source="z6AQ_ZdIFIeg6vGM6wUR-8" target="Y6eDKHJyhSqBDE-pWzHO-3" edge="1">
          <mxGeometry relative="1" as="geometry" />
        </mxCell>
        <mxCell id="z6AQ_ZdIFIeg6vGM6wUR-8" value="adm_dob" style="ellipse;whiteSpace=wrap;html=1;rounded=1;" parent="1" vertex="1">
          <mxGeometry x="277.5" y="700" width="65" height="30" as="geometry" />
        </mxCell>
        <mxCell id="z6AQ_ZdIFIeg6vGM6wUR-32" value="1" style="text;html=1;align=center;verticalAlign=middle;resizable=0;points=[];autosize=1;strokeColor=none;fillColor=none;" parent="1" vertex="1">
          <mxGeometry x="370" y="630" width="20" height="20" as="geometry" />
        </mxCell>
        <mxCell id="z6AQ_ZdIFIeg6vGM6wUR-33" value="" style="whiteSpace=wrap;html=1;rounded=1;" parent="1" vertex="1">
          <mxGeometry x="620" y="620" width="120" height="60" as="geometry" />
        </mxCell>
        <mxCell id="z6AQ_ZdIFIeg6vGM6wUR-35" value="M" style="text;html=1;align=center;verticalAlign=middle;resizable=0;points=[];autosize=1;strokeColor=none;fillColor=none;" parent="1" vertex="1">
          <mxGeometry x="590" y="630" width="30" height="20" as="geometry" />
        </mxCell>
      </root>
    </mxGraphModel>
  </diagram>
  <diagram id="_Qy7uFdCW_PkRbUWbOIz" name="Page-3">
    <mxGraphModel dx="560" dy="653" grid="1" gridSize="10" guides="1" tooltips="1" connect="1" arrows="1" fold="1" page="1" pageScale="1" pageWidth="1169" pageHeight="1654" math="0" shadow="0">
      <root>
        <mxCell id="0" />
        <mxCell id="1" parent="0" />
        <mxCell id="l4Jcel258tJZvTUDdpq2-7" value="user" style="swimlane;childLayout=stackLayout;horizontal=1;startSize=30;horizontalStack=0;rounded=0;fontSize=14;fontStyle=0;strokeWidth=2;resizeParent=0;resizeLast=1;shadow=0;dashed=0;align=center;" vertex="1" parent="1">
          <mxGeometry x="120" y="290" width="160" height="180" as="geometry">
            <mxRectangle x="450" y="240" width="70" height="30" as="alternateBounds" />
          </mxGeometry>
        </mxCell>
        <mxCell id="l4Jcel258tJZvTUDdpq2-8" value="-username: string&#xa;-password: string&#xa;" style="align=left;strokeColor=none;fillColor=none;spacingLeft=4;fontSize=12;verticalAlign=top;resizable=0;rotatable=0;part=1;" vertex="1" parent="l4Jcel258tJZvTUDdpq2-7">
          <mxGeometry y="30" width="160" height="90" as="geometry" />
        </mxCell>
        <mxCell id="l4Jcel258tJZvTUDdpq2-9" style="align=left;strokeColor=none;fillColor=none;spacingLeft=4;fontSize=12;verticalAlign=top;resizable=0;rotatable=0;part=1;" vertex="1" parent="l4Jcel258tJZvTUDdpq2-7">
          <mxGeometry y="120" width="160" as="geometry" />
        </mxCell>
        <mxCell id="l4Jcel258tJZvTUDdpq2-10" style="align=left;strokeColor=none;fillColor=none;spacingLeft=4;fontSize=12;verticalAlign=top;resizable=0;rotatable=0;part=1;" vertex="1" parent="l4Jcel258tJZvTUDdpq2-7">
          <mxGeometry y="120" width="160" as="geometry" />
        </mxCell>
        <mxCell id="l4Jcel258tJZvTUDdpq2-11" value="+ &#xa;+ login()&#xa;" style="align=left;strokeColor=#121212;fillColor=none;spacingLeft=4;fontSize=12;verticalAlign=top;resizable=0;rotatable=0;part=1;" vertex="1" parent="l4Jcel258tJZvTUDdpq2-7">
          <mxGeometry y="120" width="160" height="60" as="geometry" />
        </mxCell>
        <mxCell id="l4Jcel258tJZvTUDdpq2-12" value="customer" style="swimlane;childLayout=stackLayout;horizontal=1;startSize=30;horizontalStack=0;rounded=0;fontSize=14;fontStyle=0;strokeWidth=2;resizeParent=0;resizeLast=1;shadow=0;dashed=0;align=center;fillColor=default;gradientColor=none;strokeColor=default;swimlaneLine=1;autosize=0;container=0;fixDash=0;collapsible=1;noLabel=0;swimlaneBody=1;swimlaneHead=1;enumerate=0;treeMoving=1;" vertex="1" parent="1">
          <mxGeometry x="320" y="290" width="160" height="320" as="geometry">
            <mxRectangle x="450" y="240" width="70" height="30" as="alternateBounds" />
          </mxGeometry>
        </mxCell>
        <mxCell id="l4Jcel258tJZvTUDdpq2-13" value="- id: int&#xa;- fullName: string&#xa;- address: string&#xa;- ktpNumber: string&#xa;- hasUnit: boolean&#xa;-" style="align=left;strokeColor=none;fillColor=none;spacingLeft=4;fontSize=12;verticalAlign=top;resizable=0;rotatable=0;part=1;" vertex="1" parent="l4Jcel258tJZvTUDdpq2-12">
          <mxGeometry y="30" width="160" height="90" as="geometry" />
        </mxCell>
        <mxCell id="l4Jcel258tJZvTUDdpq2-14" style="align=left;strokeColor=none;fillColor=none;spacingLeft=4;fontSize=12;verticalAlign=top;resizable=0;rotatable=0;part=1;" vertex="1" parent="l4Jcel258tJZvTUDdpq2-12">
          <mxGeometry y="120" width="160" as="geometry" />
        </mxCell>
        <mxCell id="l4Jcel258tJZvTUDdpq2-15" style="align=left;strokeColor=none;fillColor=none;spacingLeft=4;fontSize=12;verticalAlign=top;resizable=0;rotatable=0;part=1;" vertex="1" parent="l4Jcel258tJZvTUDdpq2-12">
          <mxGeometry y="120" width="160" as="geometry" />
        </mxCell>
        <mxCell id="l4Jcel258tJZvTUDdpq2-16" value="+ &#xa;+ login()" style="align=left;strokeColor=default;fillColor=none;spacingLeft=4;fontSize=12;verticalAlign=top;resizable=1;rotatable=0;part=0;rounded=0;shadow=0;metaEdit=0;movableLabel=0;resizeWidth=0;sketch=0;imageVerticalAlign=middle;noLabel=0;portConstraintRotation=0;resizeHeight=1;expand=1;recursiveResize=1;deletable=1;cloneable=1;container=1;dropTarget=1;collapsible=0;allowArrows=0;autosize=1;fixDash=1;" vertex="1" parent="l4Jcel258tJZvTUDdpq2-12">
          <mxGeometry y="120" width="160" height="200" as="geometry">
            <mxRectangle y="120" width="230" height="200" as="alternateBounds" />
          </mxGeometry>
        </mxCell>
        <mxCell id="l4Jcel258tJZvTUDdpq2-17" value="transaksi" style="swimlane;childLayout=stackLayout;horizontal=1;startSize=30;horizontalStack=0;rounded=0;fontSize=14;fontStyle=0;strokeWidth=2;resizeParent=0;resizeLast=1;shadow=0;dashed=0;align=center;" vertex="1" parent="1">
          <mxGeometry x="430" y="70" width="220" height="210" as="geometry">
            <mxRectangle x="450" y="240" width="70" height="30" as="alternateBounds" />
          </mxGeometry>
        </mxCell>
        <mxCell id="l4Jcel258tJZvTUDdpq2-18" value="- dateOrder: date&#xa;- datePayment: date&#xa;" style="align=left;strokeColor=none;fillColor=none;spacingLeft=4;fontSize=12;verticalAlign=top;resizable=0;rotatable=0;part=1;" vertex="1" parent="l4Jcel258tJZvTUDdpq2-17">
          <mxGeometry y="30" width="220" height="90" as="geometry" />
        </mxCell>
        <mxCell id="l4Jcel258tJZvTUDdpq2-19" style="align=left;strokeColor=none;fillColor=none;spacingLeft=4;fontSize=12;verticalAlign=top;resizable=0;rotatable=0;part=1;" vertex="1" parent="l4Jcel258tJZvTUDdpq2-17">
          <mxGeometry y="120" width="220" as="geometry" />
        </mxCell>
        <mxCell id="l4Jcel258tJZvTUDdpq2-20" style="align=left;strokeColor=none;fillColor=none;spacingLeft=4;fontSize=12;verticalAlign=top;resizable=0;rotatable=0;part=1;" vertex="1" parent="l4Jcel258tJZvTUDdpq2-17">
          <mxGeometry y="120" width="220" as="geometry" />
        </mxCell>
        <mxCell id="l4Jcel258tJZvTUDdpq2-21" value="+ checkPayment(): void&#xa;+ cancelPayment(): void&#xa;+ confirmPayment(): void&#xa;+&#xa;" style="align=left;strokeColor=#121212;fillColor=none;spacingLeft=4;fontSize=12;verticalAlign=top;resizable=0;rotatable=0;part=1;" vertex="1" parent="l4Jcel258tJZvTUDdpq2-17">
          <mxGeometry y="120" width="220" height="90" as="geometry" />
        </mxCell>
        <mxCell id="l4Jcel258tJZvTUDdpq2-32" value="admin" style="swimlane;fontStyle=1;align=center;verticalAlign=top;childLayout=stackLayout;horizontal=1;startSize=26;horizontalStack=0;resizeParent=1;resizeParentMax=0;resizeLast=0;collapsible=1;marginBottom=0;rounded=0;shadow=0;sketch=0;strokeColor=default;fillColor=default;gradientColor=none;" vertex="1" parent="1">
          <mxGeometry x="120" y="120" width="160" height="144" as="geometry" />
        </mxCell>
        <mxCell id="l4Jcel258tJZvTUDdpq2-33" value="- id: int&#xa;- name: string&#xa;- phone: string&#xa;- address: string&#xa;- birthdate: date" style="text;strokeColor=none;fillColor=none;align=left;verticalAlign=top;spacingLeft=4;spacingRight=4;overflow=hidden;rotatable=0;points=[[0,0.5],[1,0.5]];portConstraint=eastwest;rounded=0;shadow=0;sketch=0;" vertex="1" parent="l4Jcel258tJZvTUDdpq2-32">
          <mxGeometry y="26" width="160" height="84" as="geometry" />
        </mxCell>
        <mxCell id="l4Jcel258tJZvTUDdpq2-34" value="" style="line;strokeWidth=1;fillColor=none;align=left;verticalAlign=middle;spacingTop=-1;spacingLeft=3;spacingRight=3;rotatable=0;labelPosition=right;points=[];portConstraint=eastwest;rounded=0;shadow=0;sketch=0;" vertex="1" parent="l4Jcel258tJZvTUDdpq2-32">
          <mxGeometry y="110" width="160" height="8" as="geometry" />
        </mxCell>
        <mxCell id="l4Jcel258tJZvTUDdpq2-35" value="+ login(): void" style="text;strokeColor=none;fillColor=none;align=left;verticalAlign=top;spacingLeft=4;spacingRight=4;overflow=hidden;rotatable=0;points=[[0,0.5],[1,0.5]];portConstraint=eastwest;rounded=0;shadow=0;sketch=0;" vertex="1" parent="l4Jcel258tJZvTUDdpq2-32">
          <mxGeometry y="118" width="160" height="26" as="geometry" />
        </mxCell>
        <mxCell id="l4Jcel258tJZvTUDdpq2-36" value="Classname" style="swimlane;fontStyle=1;align=center;verticalAlign=top;childLayout=stackLayout;horizontal=1;startSize=26;horizontalStack=0;resizeParent=1;resizeParentMax=0;resizeLast=0;collapsible=1;marginBottom=0;rounded=0;shadow=0;sketch=0;strokeColor=default;fillColor=default;gradientColor=none;" vertex="1" parent="1">
          <mxGeometry x="260" y="34" width="160" height="86" as="geometry" />
        </mxCell>
        <mxCell id="l4Jcel258tJZvTUDdpq2-37" value="+ field: type" style="text;strokeColor=none;fillColor=none;align=left;verticalAlign=top;spacingLeft=4;spacingRight=4;overflow=hidden;rotatable=0;points=[[0,0.5],[1,0.5]];portConstraint=eastwest;rounded=0;shadow=0;sketch=0;" vertex="1" parent="l4Jcel258tJZvTUDdpq2-36">
          <mxGeometry y="26" width="160" height="26" as="geometry" />
        </mxCell>
        <mxCell id="l4Jcel258tJZvTUDdpq2-38" value="" style="line;strokeWidth=1;fillColor=none;align=left;verticalAlign=middle;spacingTop=-1;spacingLeft=3;spacingRight=3;rotatable=0;labelPosition=right;points=[];portConstraint=eastwest;rounded=0;shadow=0;sketch=0;" vertex="1" parent="l4Jcel258tJZvTUDdpq2-36">
          <mxGeometry y="52" width="160" height="8" as="geometry" />
        </mxCell>
        <mxCell id="l4Jcel258tJZvTUDdpq2-39" value="+ method(type): type" style="text;strokeColor=none;fillColor=none;align=left;verticalAlign=top;spacingLeft=4;spacingRight=4;overflow=hidden;rotatable=0;points=[[0,0.5],[1,0.5]];portConstraint=eastwest;rounded=0;shadow=0;sketch=0;" vertex="1" parent="l4Jcel258tJZvTUDdpq2-36">
          <mxGeometry y="60" width="160" height="26" as="geometry" />
        </mxCell>
        <mxCell id="l4Jcel258tJZvTUDdpq2-40" value="customer" style="swimlane;fontStyle=1;align=center;verticalAlign=top;childLayout=stackLayout;horizontal=1;startSize=26;horizontalStack=0;resizeParent=1;resizeParentMax=0;resizeLast=0;collapsible=1;marginBottom=0;rounded=0;shadow=0;sketch=0;strokeColor=default;fillColor=default;gradientColor=none;" vertex="1" parent="1">
          <mxGeometry x="490" y="290" width="160" height="134" as="geometry" />
        </mxCell>
        <mxCell id="l4Jcel258tJZvTUDdpq2-41" value="- dateOrder: date&#xa;- datePayment: date&#xa;- id_customer: int&#xa;- address_customer: string" style="text;strokeColor=none;fillColor=none;align=left;verticalAlign=top;spacingLeft=4;spacingRight=4;overflow=hidden;rotatable=0;points=[[0,0.5],[1,0.5]];portConstraint=eastwest;rounded=0;shadow=0;sketch=0;" vertex="1" parent="l4Jcel258tJZvTUDdpq2-40">
          <mxGeometry y="26" width="160" height="74" as="geometry" />
        </mxCell>
        <mxCell id="l4Jcel258tJZvTUDdpq2-42" value="" style="line;strokeWidth=1;fillColor=none;align=left;verticalAlign=middle;spacingTop=-1;spacingLeft=3;spacingRight=3;rotatable=0;labelPosition=right;points=[];portConstraint=eastwest;rounded=0;shadow=0;sketch=0;" vertex="1" parent="l4Jcel258tJZvTUDdpq2-40">
          <mxGeometry y="100" width="160" height="8" as="geometry" />
        </mxCell>
        <mxCell id="l4Jcel258tJZvTUDdpq2-43" value="+ method(type): type" style="text;strokeColor=none;fillColor=none;align=left;verticalAlign=top;spacingLeft=4;spacingRight=4;overflow=hidden;rotatable=0;points=[[0,0.5],[1,0.5]];portConstraint=eastwest;rounded=0;shadow=0;sketch=0;" vertex="1" parent="l4Jcel258tJZvTUDdpq2-40">
          <mxGeometry y="108" width="160" height="26" as="geometry" />
        </mxCell>
      </root>
    </mxGraphModel>
  </diagram>
</mxfile>
